# xmcd CD database file
#
# Track frame offsets:
#	150
#	19997
#	34420
#	54765
#	71792
#	85385
#	97262
#	108507
#	120222
#	132940
#	153547
#	168100
#	182002
#	193395
#
# Disc length: 2727 seconds
#
# Revision: 0
# Processed by: cddbd v1.4PL0 Copyright (c) Steve Scherf et al.
# Submitted via: CDex 1.50
#
DISCID=c20aa50e
DTITLE=Various Artist - The Roots of Ragtime
DYEAR=1995
DGENRE=Rhythmic Soul
TTITLE0=Scott Joplin - The Entertainer
TTITLE1=Scott Joplin - The Maple Leaf Rag
TTITLE2=Frank X. McFadden - Rags To Burn
TTITLE3=Max Hoffmann - Rag Medley
TTITLE4=William H. Krell - Mississippi Rag
TTITLE5=Theodore H. Northrup - Lousiana Rag
TTITLE6=Tom Turpin - Harlem Rag
TTITLE7=B. H. Janssen - Down Souf' In Alabama
TTITLE8=Abe Holzmann - Smoky Mokes
TTITLE9=Scott Joplin - Weeping Willow
TTITLE10=Edgar Settle - X.L. Rag
TTITLE11=James Chapman - One O' Them Things
TTITLE12=Collis Welborn Jackson - Texas Rag
TTITLE13=George M. Cohan - Popularity
EXTD=YEAR: 1995
EXTT0=
EXTT1=
EXTT2=
EXTT3=
EXTT4=
EXTT5=
EXTT6=
EXTT7=
EXTT8=
EXTT9=
EXTT10=
EXTT11=
EXTT12=
EXTT13=
PLAYORDER=
